<svg width="31" height="31" viewBox="0 0 31 31" fill="none" xmlns="http://www.w3.org/2000/svg">
<rect x="0.484375" y="0.5" width="30" height="30" rx="15" fill="white"/>
<path fill-rule="evenodd" clip-rule="evenodd" d="M20.9543 15.9214C21.2021 15.6737 21.2021 15.2719 20.9543 15.0241L17.5704 11.6402C17.3226 11.3924 16.9208 11.3924 16.6731 11.6402C16.4253 11.888 16.4253 12.2897 16.6731 12.5375L18.9739 14.8383H10.3538C10.0034 14.8383 9.71936 15.1224 9.71936 15.4728C9.71936 15.8232 10.0034 16.1073 10.3538 16.1073H18.9739L16.6731 18.4081C16.4253 18.6559 16.4253 19.0576 16.6731 19.3054C16.9208 19.5532 17.3226 19.5532 17.5704 19.3054L20.9543 15.9214Z" fill="#101036"/>
</svg>
