<svg width="33" height="32" viewBox="0 0 33 32" fill="none" xmlns="http://www.w3.org/2000/svg">
<rect x="0.5" width="32" height="32" rx="4" fill="#5296FB" fill-opacity="0.15"/>
<path opacity="0.4" d="M22.527 12.793L16.5003 16.2797L10.4736 12.793C10.7403 12.2997 11.127 11.8663 11.5603 11.6263L15.1203 9.65301C15.8803 9.22634 17.1203 9.22634 17.8803 9.65301L21.4403 11.6263C21.8736 11.8663 22.2603 12.2997 22.527 12.793Z" fill="#5296FB"/>
<path opacity="0.6" d="M16.5004 16.2796V22.6663C16.0004 22.6663 15.5004 22.5596 15.1204 22.3463L11.5604 20.373C10.7537 19.9263 10.0938 18.8063 10.0938 17.8863V14.113C10.0938 13.6863 10.2404 13.2196 10.4737 12.793L16.5004 16.2796Z" fill="#5296FB"/>
<path d="M22.9072 14.113V17.8863C22.9072 18.8063 22.2472 19.9263 21.4405 20.373L17.8805 22.3463C17.5005 22.5596 17.0005 22.6663 16.5005 22.6663V16.2796L22.5272 12.793C22.7605 13.2196 22.9072 13.6863 22.9072 14.113Z" fill="#5296FB"/>
</svg>
