<svg width="33" height="32" viewBox="0 0 33 32" fill="none" xmlns="http://www.w3.org/2000/svg">
<rect x="0.5" width="32" height="32" rx="4" fill="#5296FB" fill-opacity="0.15"/>
<path opacity="0.4" d="M19.4934 22.6663H13.5067C11.1667 22.6663 10.6601 21.3263 10.8534 19.6863L11.4534 14.6863C11.6067 13.393 11.8334 12.333 14.1001 12.333H18.9001C21.1667 12.333 21.3934 13.393 21.5467 14.6863L22.0467 18.853L22.1467 19.6863C22.1534 19.7397 22.1601 19.793 22.1667 19.8463C22.3067 21.413 21.7601 22.6663 19.4934 22.6663Z" fill="#5296FB"/>
<path d="M19.1668 13.834C18.8935 13.834 18.6668 13.6073 18.6668 13.334V11.0007C18.6668 10.2807 18.2202 9.83398 17.5002 9.83398H15.5002C14.7802 9.83398 14.3335 10.2807 14.3335 11.0007V13.334C14.3335 13.6073 14.1068 13.834 13.8335 13.834C13.5602 13.834 13.3335 13.6073 13.3335 13.334V11.0007C13.3335 9.72732 14.2268 8.83398 15.5002 8.83398H17.5002C18.7735 8.83398 19.6668 9.72732 19.6668 11.0007V13.334C19.6668 13.6073 19.4402 13.834 19.1668 13.834Z" fill="#5296FB"/>
<path d="M22.1666 19.8468C22.1466 19.8535 22.1266 19.8535 22.1066 19.8535H13.8333C13.5599 19.8535 13.3333 19.6268 13.3333 19.3535C13.3333 19.0735 13.5599 18.8535 13.8333 18.8535H22.0466L22.1466 19.6868C22.1533 19.7402 22.1599 19.7935 22.1666 19.8468Z" fill="#5296FB"/>
</svg>
