<svg width="33" height="32" viewBox="0 0 33 32" fill="none" xmlns="http://www.w3.org/2000/svg">
<rect x="0.5" width="32" height="32" rx="4" fill="#5296FB" fill-opacity="0.15"/>
<path opacity="0.4" d="M20.9466 9.33301H19.68C18.2266 9.33301 17.46 10.0997 17.46 11.553V12.8197C17.46 14.273 18.2266 15.0397 19.68 15.0397H20.9466C22.4 15.0397 23.1666 14.273 23.1666 12.8197V11.553C23.1666 10.0997 22.4 9.33301 20.9466 9.33301Z" fill="#5296FB"/>
<path opacity="0.4" d="M13.3266 16.9531H12.0599C10.5999 16.9531 9.83325 17.7198 9.83325 19.1731V20.4398C9.83325 21.8998 10.5999 22.6665 12.0533 22.6665H13.3199C14.7733 22.6665 15.5399 21.8998 15.5399 20.4465V19.1798C15.5466 17.7198 14.7799 16.9531 13.3266 16.9531Z" fill="#5296FB"/>
<path d="M12.6933 15.053C14.2728 15.053 15.5533 13.7725 15.5533 12.193C15.5533 10.6135 14.2728 9.33301 12.6933 9.33301C11.1137 9.33301 9.83325 10.6135 9.83325 12.193C9.83325 13.7725 11.1137 15.053 12.6933 15.053Z" fill="#5296FB"/>
<path d="M20.3068 22.6663C21.8863 22.6663 23.1668 21.3858 23.1668 19.8063C23.1668 18.2268 21.8863 16.9463 20.3068 16.9463C18.7272 16.9463 17.4468 18.2268 17.4468 19.8063C17.4468 21.3858 18.7272 22.6663 20.3068 22.6663Z" fill="#5296FB"/>
</svg>
