<svg width="38" height="49" viewBox="0 0 38 49" fill="none" xmlns="http://www.w3.org/2000/svg">
<g clip-path="url(#clip0_68_407)">
<path d="M37.0861 24.4022C37.0861 26.3708 37.1468 28.3517 37.0739 30.3203C36.8795 35.7524 34.7285 40.2851 30.5968 43.8093C26.9025 46.9567 22.5763 48.3907 17.7397 48.1233C12.5993 47.8317 8.30959 45.705 4.90697 41.8406C2.45222 39.0335 1.01826 35.7524 0.544321 32.0581C0.459255 31.3897 0.410646 30.7213 0.410646 30.053C0.410646 26.2007 0.386342 22.3485 0.422798 18.4962C0.447103 15.604 1.20054 12.8819 2.57374 10.3299C4.36012 7.01235 6.92424 4.46038 10.2539 2.72262C13.5837 0.984847 17.1321 0.328627 20.8628 0.766107C27.3886 1.5317 32.9665 5.67561 35.567 11.6667C36.5757 13.9877 37.0739 16.4182 37.0739 18.958C37.0982 20.7687 37.0982 22.5793 37.0861 24.4022C37.0982 24.4022 37.0861 24.4022 37.0861 24.4022ZM6.97285 7.71718C6.7298 7.88731 6.51106 8.0939 6.32878 8.32479C6.26802 8.3977 6.21941 8.47062 6.30447 8.55568C6.38954 8.6286 6.46245 8.57999 6.52321 8.50707C6.81487 8.20327 7.09437 7.89946 7.38602 7.59566C7.45894 7.52274 7.50754 7.42553 7.41033 7.35261C7.28881 7.26755 7.22804 7.36476 7.17944 7.46198C7.15513 7.49844 7.14298 7.54705 7.13083 7.5835C7.07007 7.61996 7.02146 7.66857 6.97285 7.71718ZM11.858 18.5813C11.8459 19.1038 11.8945 19.6385 12.016 20.1489C12.2105 20.9753 12.4778 21.8016 13.1705 22.3606C14.2399 23.2356 15.4551 23.8553 16.804 24.2077C17.679 24.4386 18.3716 24.1591 18.9185 23.4908C19.1858 23.1627 19.5018 23.0168 19.9028 22.9561C20.6927 22.8467 21.3975 23.0897 22.0659 23.4908C22.5885 23.8067 23.1475 24.0255 23.7794 23.8918C24.1925 23.8067 24.5693 23.6366 24.8974 23.3814C25.8696 22.628 26.4772 21.6801 26.4529 20.4041C26.4286 19.4198 25.748 18.7879 24.8002 18.8243C24.2412 18.8486 23.7551 19.0795 23.3054 19.4076C23.1718 19.5048 23.0867 19.5048 23.0016 19.359C22.8193 19.0552 22.6006 18.7757 22.3697 18.5084C22.2603 18.3868 22.2725 18.3018 22.3819 18.1924C22.795 17.7914 23.0867 17.3053 23.2082 16.7341C23.3784 15.9199 23.1596 15.1665 22.8072 14.4374C22.4669 13.7568 22.0051 13.1614 21.4705 12.6024C21.3975 12.5295 21.2639 12.4565 21.3975 12.335C22.0416 11.7274 22.309 10.9497 22.4183 10.099C22.5034 9.44279 22.5155 8.77442 22.1388 8.16681C22.0781 8.05744 22.1267 7.99668 22.1753 7.91161C22.4669 7.44983 22.4062 6.86652 22.0051 6.52626C21.592 6.17385 21.0573 6.186 20.6198 6.57487C20.5226 6.65994 20.4497 6.68424 20.3281 6.63563C19.4289 6.27106 18.5053 6.23461 17.5696 6.47765C17.4359 6.51411 17.363 6.4898 17.2658 6.36828C16.8891 5.85789 16.2571 5.73637 15.7589 6.06448C15.2485 6.40474 15.1027 7.04881 15.4308 7.5835C15.5159 7.72933 15.4916 7.80224 15.3943 7.91161C15.0176 8.34909 14.6895 8.82303 14.4222 9.33342C13.8267 10.4393 13.4014 11.618 12.976 12.7847C12.332 14.6683 11.8702 16.5762 11.858 18.5813ZM13.1826 29.1051C13.1705 29.1051 13.1826 29.1051 13.1826 29.1051C13.1826 28.2301 13.1826 27.343 13.1826 26.4681C13.1826 26.2493 13.1826 26.0427 13.1097 25.824C12.7087 24.5966 11.2869 24.1713 10.2783 24.9612C10.1689 25.0463 10.0838 25.1313 9.93799 24.9976C9.36684 24.4994 8.71062 24.4143 8.03009 24.7303C7.36172 25.0462 7.0093 25.6174 7.0093 26.3587C6.99715 27.3552 7.0093 28.3517 7.0093 29.3603C7.0093 30.2353 7.0093 31.0981 7.0093 31.973C7.0093 32.0824 6.985 32.2161 7.10652 32.2768C7.33741 32.3983 7.58046 32.374 7.81135 32.3133C8.00579 32.2647 7.98148 32.0581 7.98148 31.9001C7.98148 30.0773 7.98148 28.2666 7.98148 26.4438C7.98148 25.8969 8.32174 25.5323 8.81999 25.5445C9.28177 25.5566 9.60988 25.9212 9.60988 26.4438C9.60988 27.7076 9.60988 28.9714 9.60988 30.2474C9.60988 30.8307 9.60988 31.414 9.60988 32.0095C9.60988 32.2404 9.7071 32.3619 9.95014 32.3619C10.0231 32.3619 10.0838 32.3619 10.1567 32.3619C10.5334 32.3619 10.5699 32.3254 10.5699 31.9487C10.5699 30.3446 10.5699 28.7405 10.5699 27.1364C10.5699 26.8569 10.5578 26.5896 10.5821 26.3101C10.6185 25.8604 10.9709 25.5445 11.4084 25.5445C11.8459 25.5566 12.1862 25.8848 12.2226 26.3222C12.2348 26.5167 12.2226 26.699 12.2226 26.8934C12.2226 28.5704 12.2226 30.2596 12.2226 31.9366C12.2226 32.3011 12.2834 32.3497 12.6479 32.3619C12.7087 32.3619 12.7695 32.3619 12.8302 32.3619C13.1219 32.3497 13.1948 32.2768 13.1948 31.9852C13.1826 31.0251 13.1826 30.0651 13.1826 29.1051ZM19.4167 29.5304C19.4167 30.3446 19.4167 31.1467 19.4167 31.9609C19.4167 32.0945 19.3924 32.2404 19.5382 32.3011C19.7691 32.3983 20.0122 32.3862 20.2431 32.3011C20.4375 32.2282 20.3889 32.0338 20.3889 31.8636C20.3889 30.3082 20.3889 28.7648 20.3889 27.2093C20.3889 26.7354 20.717 26.4073 21.1788 26.3951C21.6284 26.383 21.9808 26.6868 22.0173 27.1607C22.0295 27.3916 22.0295 27.6225 22.0295 27.8534C22.0295 29.2145 22.0295 30.5755 22.0295 31.9366C22.0295 32.0581 21.993 32.2039 22.1145 32.2647C22.3454 32.3862 22.6128 32.3619 22.8437 32.3011C23.0381 32.2404 22.9773 32.0216 22.9773 31.8636C22.9773 30.3446 22.9773 28.8256 22.9773 27.3187C22.9773 27.2215 22.9895 27.1243 23.0016 27.0392C23.0745 26.6868 23.354 26.4316 23.6822 26.3951C24.071 26.3587 24.387 26.5288 24.545 26.8812C24.6179 27.0392 24.6179 27.2093 24.6179 27.3916C24.6179 28.9107 24.6179 30.4297 24.6179 31.9366C24.6179 32.289 24.6786 32.3376 25.0189 32.3497C25.0918 32.3497 25.1526 32.3497 25.2255 32.3497C25.4928 32.3376 25.5779 32.2647 25.5779 31.9852C25.5779 30.3811 25.5901 28.777 25.5658 27.1729C25.5536 26.4316 25.189 25.8848 24.5207 25.5809C23.8523 25.2771 23.2204 25.3744 22.6614 25.824C22.5277 25.9334 22.4426 25.9334 22.309 25.824C21.7256 25.3501 21.0694 25.265 20.4011 25.5931C19.7448 25.9212 19.4046 26.4681 19.3924 27.2093C19.4167 27.9992 19.4167 28.7648 19.4167 29.5304ZM10.1567 36.8947C10.1567 38.0005 10.1567 39.1185 10.1567 40.2244C10.1567 40.6132 10.3269 40.7955 10.7157 40.7955C11.1289 40.7955 11.5421 40.8077 11.9553 40.7955C12.7938 40.7834 13.4864 40.2001 13.6687 39.3859C13.7416 39.0335 13.7052 38.6689 13.7173 38.3043C13.7295 37.8304 13.5958 37.4051 13.2799 37.0405C13.1826 36.9311 13.1948 36.8582 13.2799 36.761C13.5107 36.5058 13.6566 36.202 13.693 35.8617C13.7295 35.4486 13.7416 35.0354 13.693 34.6222C13.5958 33.6986 12.8424 33.0424 11.931 33.0303C11.5299 33.0303 11.1411 33.0303 10.74 33.0303C10.2904 33.0303 10.1446 33.1882 10.1446 33.6379C10.1567 34.7316 10.1567 35.8131 10.1567 36.8947ZM23.7915 36.9797C23.7915 38.122 23.7915 39.2522 23.7915 40.3945C23.7915 40.516 23.7672 40.674 23.9009 40.7469C24.1318 40.8563 24.3748 40.832 24.6057 40.7712C24.8002 40.7105 24.7637 40.5039 24.7637 40.3459C24.7637 39.4466 24.7637 38.5352 24.7637 37.636C24.7637 37.4537 24.8123 37.3808 24.9946 37.3929C25.1526 37.4051 25.3106 37.3929 25.4564 37.3929C26.064 37.4051 26.3799 37.721 26.3799 38.3286C26.3799 39.0335 26.3799 39.7383 26.3799 40.4431C26.3799 40.7348 26.4407 40.7834 26.7324 40.7955C26.8053 40.7955 26.8903 40.7955 26.9633 40.7955C27.2671 40.7955 27.3521 40.7226 27.3521 40.4188C27.3521 39.6775 27.3521 38.9362 27.3521 38.195C27.3521 37.7696 27.2185 37.3808 26.939 37.0526C26.8296 36.9311 26.8539 36.8582 26.939 36.7488C27.1455 36.5058 27.2792 36.2141 27.3157 35.886C27.3764 35.4729 27.3764 35.0597 27.3278 34.6465C27.2306 33.6743 26.4772 33.0181 25.505 33.0303C25.1526 33.0303 24.8002 33.0303 24.4477 33.0303C23.9009 33.0303 23.7794 33.1518 23.7794 33.6986C23.7915 34.7923 23.7915 35.886 23.7915 36.9797ZM26.9268 29.1294C26.9268 30.0651 26.9268 31.0008 26.9268 31.9487C26.9268 32.3133 26.9876 32.3619 27.3521 32.3619C27.4007 32.3619 27.4372 32.3619 27.4858 32.3619C27.8504 32.3497 27.899 32.3133 27.899 31.9366C27.899 31.0373 27.899 30.1259 27.899 29.2266C27.899 29.0322 27.9476 28.9471 28.1663 28.9593C28.5066 28.9714 28.859 28.9593 29.1993 28.9593C29.5517 28.9593 29.5517 28.9593 29.5517 29.3117C29.5517 30.2109 29.5517 31.0981 29.5517 31.9973C29.5517 32.2768 29.6246 32.3497 29.9041 32.3619C29.977 32.3619 30.0378 32.3619 30.1107 32.3619C30.4631 32.3619 30.5239 32.3133 30.5239 31.9609C30.5239 30.1137 30.536 28.2544 30.5239 26.4073C30.5117 25.3744 29.7097 24.5845 28.7253 24.5845C27.7288 24.5845 26.939 25.3987 26.939 26.4438C26.9268 27.3309 26.9268 28.2301 26.9268 29.1294ZM22.5277 37.5752C22.5277 36.6516 22.5398 35.7281 22.5277 34.8045C22.5155 33.9903 21.9687 33.2855 21.2153 33.091C20.0729 32.7994 18.9792 33.6379 18.9671 34.8288C18.9549 36.1169 18.9671 37.4172 18.9671 38.7053C18.9671 39.2887 18.9671 39.872 18.9671 40.4674C18.9671 40.7105 19.0765 40.8198 19.3074 40.8077C19.3803 40.8077 19.441 40.8077 19.5139 40.8077C19.8785 40.8077 19.9393 40.7469 19.9393 40.3824C19.9393 39.4831 19.9514 38.596 19.9393 37.6967C19.9393 37.4658 20.0122 37.3929 20.2309 37.4051C20.5712 37.4172 20.8993 37.4051 21.2396 37.4051C21.5798 37.4051 21.5798 37.4051 21.5798 37.7453C21.5798 38.6324 21.5798 39.5195 21.5798 40.4067C21.5798 40.7591 21.6284 40.8077 21.9808 40.8077C22.0295 40.8077 22.0659 40.8077 22.1145 40.8077C22.4912 40.8077 22.5277 40.7591 22.5277 40.3945C22.5277 39.4588 22.5277 38.5109 22.5277 37.5752ZM18.08 29.9314C18.08 29.2631 18.08 28.6069 18.08 27.9385C18.0678 26.9298 17.2901 26.1521 16.2936 26.1521C15.3336 26.1521 14.5315 26.9541 14.5194 27.9385C14.5072 28.461 14.5194 28.9957 14.5194 29.5183C14.5194 30.3325 14.5194 31.1588 14.5194 31.973C14.5194 32.289 14.5801 32.3497 14.8961 32.3619C14.9447 32.3619 14.9812 32.3619 15.0298 32.3619C15.4551 32.3619 15.4916 32.3254 15.4916 31.9123C15.4916 31.0251 15.5037 30.138 15.4916 29.2509C15.4916 29.02 15.5645 28.9593 15.7832 28.9593C16.1356 28.9714 16.488 28.9836 16.8405 28.9593C17.0835 28.9471 17.1443 29.0322 17.1443 29.2631C17.1321 30.1866 17.1443 31.1102 17.1443 32.0338C17.1443 32.2647 17.2415 32.374 17.4724 32.3619C17.521 32.3619 17.5574 32.3619 17.606 32.3619C18.0921 32.3619 18.1043 32.3497 18.1043 31.8758C18.08 31.2196 18.08 30.5755 18.08 29.9314ZM15.0541 36.9068C15.0541 38.0127 15.0541 39.1064 15.0541 40.2122C15.0541 40.6376 15.2242 40.8077 15.6495 40.8077C16.1113 40.8077 16.561 40.8077 17.0227 40.8077C17.6182 40.8077 17.6425 40.7834 17.6303 40.1879C17.6182 39.9084 17.5574 39.8355 17.2779 39.8355C16.9377 39.8355 16.5853 39.8234 16.245 39.8355C16.0749 39.8355 16.0141 39.7869 16.0263 39.6168C16.0384 38.9484 16.0384 38.2922 16.0263 37.6238C16.0263 37.4537 16.0749 37.3929 16.245 37.3929C16.5123 37.4051 16.7797 37.3929 17.047 37.3929C17.6425 37.3929 17.6668 37.3565 17.6425 36.761C17.6303 36.5301 17.5453 36.4086 17.2901 36.4207C16.9498 36.4329 16.6217 36.4086 16.2815 36.4207C16.087 36.4329 16.0263 36.36 16.0263 36.1655C16.0384 35.5093 16.0384 34.8531 16.0263 34.1969C16.0263 34.0146 16.0992 33.9781 16.2571 33.9781C16.5245 33.9903 16.7918 33.9781 17.0592 33.9781C17.6425 33.9781 17.6668 33.9538 17.6425 33.3584C17.6425 33.3462 17.6425 33.3462 17.6425 33.3341C17.6425 33.1032 17.5453 33.0181 17.3144 33.0181C16.7797 33.0181 16.245 33.0181 15.7103 33.006C15.2364 33.006 15.0784 33.1639 15.0662 33.6379C15.0541 34.7316 15.0541 35.8131 15.0541 36.9068ZM35.1174 19.3955C35.1174 19.201 35.1174 18.9944 35.1174 18.8C35.1174 18.7028 35.1052 18.5934 34.9837 18.5934C34.8622 18.5934 34.85 18.7028 34.85 18.8C34.85 19.2132 34.85 19.6264 34.85 20.0395C34.85 20.1246 34.8622 20.234 34.9716 20.234C35.0931 20.234 35.1174 20.1368 35.1296 20.0395C35.1174 19.8329 35.1174 19.6142 35.1174 19.3955ZM34.8379 22.2269C34.8379 22.4457 34.8379 22.6523 34.8379 22.871C34.8379 22.9561 34.8622 23.0533 34.9837 23.0533C35.0931 23.0533 35.1174 22.9561 35.1174 22.871C35.1174 22.4457 35.1174 22.0325 35.1174 21.6072C35.1174 21.5221 35.0931 21.4249 34.9837 21.4249C34.8744 21.4249 34.85 21.5221 34.85 21.6072C34.8379 21.8138 34.8379 22.0203 34.8379 22.2269ZM35.1174 27.8656C35.1174 27.659 35.1174 27.4524 35.1174 27.2458C35.1174 27.1486 35.1052 27.0514 34.9716 27.0514C34.8622 27.0514 34.8379 27.1486 34.8379 27.2337C34.8379 27.6468 34.8379 28.06 34.8379 28.4732C34.8379 28.5704 34.8622 28.6798 34.9837 28.6676C35.1052 28.6676 35.1052 28.5461 35.1174 28.4489C35.1174 28.2666 35.1174 28.0722 35.1174 27.8656ZM35.1174 25.0341C35.1174 24.8397 35.1174 24.6331 35.1174 24.4386C35.1174 24.3414 35.1174 24.2321 34.9837 24.2199C34.8622 24.2199 34.8379 24.3171 34.8379 24.4265C34.8379 24.8275 34.8379 25.2407 34.8379 25.6417C34.8379 25.7389 34.85 25.8483 34.9837 25.8483C35.1174 25.8361 35.1174 25.7268 35.1174 25.6296C35.1174 25.4351 35.1174 25.2285 35.1174 25.0341ZM19.1737 2.60109C19.0643 2.60109 18.9671 2.60109 18.8699 2.61325C18.7727 2.61325 18.6268 2.58894 18.6268 2.73477C18.6268 2.88059 18.7605 2.89275 18.8699 2.89275C19.2587 2.9049 19.6476 2.88059 20.0243 2.9292C20.1216 2.94136 20.2066 2.9292 20.2309 2.81983C20.2552 2.68616 20.1459 2.67401 20.0486 2.66185C19.7448 2.63755 19.4653 2.61325 19.1737 2.60109ZM6.41385 40.4553C6.43815 40.4431 6.47461 40.4188 6.49891 40.3945C6.55967 40.3094 6.49891 40.2487 6.4503 40.1879C6.20726 39.872 5.95206 39.556 5.70902 39.24C5.64825 39.155 5.57534 39.0578 5.46597 39.155C5.36875 39.24 5.44167 39.3251 5.49028 39.398C5.74547 39.7261 6.00067 40.0421 6.25587 40.3702C6.28017 40.4188 6.32878 40.4553 6.41385 40.4553ZM30.2444 7.38907C30.2322 7.36476 30.2322 7.32831 30.2079 7.304C29.8798 6.96374 29.5274 6.64778 29.1507 6.35613C29.102 6.31967 29.0413 6.33183 28.9927 6.38043C28.9319 6.4412 28.9441 6.51411 29.0048 6.56272C29.3451 6.87868 29.6854 7.19463 30.0378 7.49844C30.1228 7.5592 30.2201 7.52274 30.2444 7.38907ZM4.22644 12.0312C4.22644 11.9462 4.20214 11.8975 4.14138 11.8854C4.03201 11.8611 3.9834 11.934 3.94694 12.0191C3.78896 12.3836 3.61883 12.7604 3.46085 13.1371C3.4244 13.2343 3.36364 13.3558 3.49731 13.4044C3.63099 13.4652 3.66744 13.3315 3.71605 13.2343C3.87403 12.8697 4.03201 12.5052 4.18999 12.1406C4.18999 12.1041 4.21429 12.0677 4.22644 12.0312ZM4.74899 10.8889C4.78545 10.8768 4.83406 10.8646 4.84621 10.8281C5.1014 10.4393 5.3566 10.0383 5.6118 9.64938C5.64825 9.58862 5.6361 9.52786 5.57534 9.4914C5.50243 9.45495 5.44167 9.4671 5.39306 9.52786C5.11356 9.89243 4.87051 10.2813 4.63962 10.6945C4.59101 10.7795 4.63962 10.8525 4.74899 10.8889ZM28.0691 43.2381C28.0813 43.226 28.1177 43.226 28.1299 43.2138C28.5066 42.9586 28.8712 42.6791 29.2114 42.3875C29.2722 42.3389 29.2965 42.266 29.2479 42.2052C29.1871 42.1323 29.102 42.1444 29.0413 42.193C28.6889 42.4604 28.3365 42.7399 27.984 43.0072C27.9354 43.0437 27.9111 43.1045 27.9354 43.1652C27.9597 43.226 28.0083 43.2503 28.0691 43.2381ZM31.2773 40.3216C31.2773 40.2487 31.253 40.2001 31.2044 40.1758C31.1072 40.115 31.0586 40.2001 31.0099 40.2487C30.7304 40.5525 30.4509 40.8441 30.1714 41.1479C30.1107 41.2209 30.0256 41.3059 30.1107 41.391C30.2079 41.4882 30.293 41.4153 30.3659 41.3424C30.6332 41.0629 30.8884 40.7834 31.1558 40.4917C31.2044 40.431 31.2408 40.3702 31.2773 40.3216ZM8.39466 6.62348C8.40681 6.61133 8.44327 6.61133 8.45542 6.59917C8.81999 6.31967 9.18455 6.04017 9.54912 5.74852C9.59773 5.71206 9.63418 5.6513 9.58558 5.59054C9.53697 5.52978 9.46405 5.51763 9.40329 5.55408C9.29392 5.61484 9.1967 5.67561 9.09949 5.74852C8.83214 5.95511 8.57694 6.16169 8.30959 6.36828C8.24883 6.41689 8.21237 6.47765 8.24883 6.55057C8.28529 6.59917 8.3339 6.62348 8.39466 6.62348ZM7.36172 41.233C7.31311 41.233 7.27665 41.2573 7.2645 41.2938C7.22804 41.391 7.27665 41.4639 7.33741 41.5247C7.64122 41.792 7.93287 42.0715 8.23668 42.3389C8.30959 42.4118 8.40681 42.4847 8.50403 42.3632C8.58909 42.2538 8.49188 42.193 8.41896 42.1323C8.11516 41.8649 7.8235 41.5854 7.5197 41.3181C7.47109 41.2816 7.42248 41.2452 7.36172 41.233ZM10.813 43.9187C10.813 43.8457 10.7765 43.7971 10.7279 43.7728C10.3633 43.5419 9.9866 43.2989 9.62203 43.068C9.54912 43.0194 9.4762 43.0072 9.41544 43.0923C9.36684 43.1652 9.39114 43.226 9.4519 43.2746C9.82862 43.5419 10.2053 43.8093 10.6185 44.0159C10.7279 44.0645 10.7886 44.0159 10.813 43.9187ZM18.238 46.179C18.4081 46.1668 18.5782 46.179 18.7484 46.1668C18.8334 46.1668 18.9306 46.1425 18.9185 46.021C18.9063 45.9238 18.8213 45.9238 18.7362 45.9116C18.3109 45.8873 17.8855 45.8752 17.4481 45.863C17.3508 45.863 17.2415 45.8387 17.2415 45.9845C17.2415 46.0939 17.3387 46.1061 17.4359 46.1182C17.7033 46.1425 17.9706 46.1668 18.238 46.179ZM14.4951 3.1601C14.0576 3.26947 13.6201 3.40314 13.1948 3.57327C13.1219 3.59758 13.0854 3.65834 13.1097 3.7434C13.134 3.82847 13.2069 3.84062 13.2799 3.81632C13.7173 3.68264 14.1427 3.53681 14.5801 3.40314C14.6531 3.37884 14.6895 3.31807 14.6652 3.24516C14.6409 3.17225 14.5801 3.1601 14.4951 3.1601ZM23.0502 45.5957C23.4756 45.5106 23.913 45.3526 24.3627 45.1825C24.4234 45.1582 24.4477 45.0974 24.4356 45.0367C24.4113 44.9516 24.3384 44.9394 24.2655 44.9516C23.828 45.0853 23.3905 45.2189 22.9652 45.3648C22.8923 45.3891 22.8437 45.4377 22.868 45.5227C22.8801 45.5957 22.9409 45.6078 23.0502 45.5957ZM33.5012 11.9218C33.5012 11.9097 33.489 11.8854 33.489 11.8732C33.3067 11.4479 33.0637 11.0469 32.8328 10.6459C32.7963 10.5851 32.7234 10.5608 32.6505 10.6094C32.5897 10.658 32.5776 10.7309 32.614 10.7917C32.8328 11.1806 33.0515 11.5694 33.246 11.9826C33.2824 12.0555 33.3432 12.0677 33.4282 12.0434C33.4768 12.0191 33.5012 11.9705 33.5012 11.9218ZM32.0672 9.4914C32.055 9.45495 32.0307 9.39419 31.9943 9.35773C31.7391 9.02962 31.4717 8.70151 31.2044 8.3734C31.1558 8.31264 31.0829 8.26403 31.0099 8.32479C30.9492 8.3734 30.9492 8.44631 30.9978 8.50707C31.2894 8.87164 31.5689 9.23621 31.8606 9.60077C31.8971 9.63723 31.9457 9.66153 31.9943 9.63723C32.055 9.61293 32.0793 9.57647 32.0672 9.4914ZM33.4525 36.8704C33.4768 36.8582 33.5255 36.8339 33.5376 36.8096C33.7685 36.3964 33.9265 35.959 34.0845 35.5093C34.1088 35.4364 34.0845 35.3756 33.9994 35.3513C33.9265 35.327 33.8779 35.3635 33.8536 35.4242C33.6713 35.8496 33.489 36.2749 33.3189 36.7002C33.2946 36.7731 33.331 36.8461 33.4525 36.8704ZM10.6914 5.00723C10.7036 5.00723 10.7279 5.00723 10.74 4.99508C11.1411 4.78849 11.5542 4.58191 11.9553 4.36317C12.0282 4.32671 12.0768 4.2538 12.016 4.16873C11.9674 4.08366 11.8945 4.09582 11.8094 4.13227C11.6393 4.21734 11.4692 4.3024 11.299 4.38747C11.0803 4.50899 10.8616 4.63051 10.6428 4.75204C10.5699 4.78849 10.5213 4.84925 10.5578 4.94647C10.5942 4.99508 10.6307 5.01939 10.6914 5.00723ZM26.9876 43.87C26.9511 43.7364 26.8539 43.7364 26.7445 43.785C26.3678 43.9794 25.9789 44.1739 25.6022 44.3804C25.5293 44.4169 25.4442 44.4777 25.505 44.587C25.5658 44.6842 25.6508 44.6599 25.7237 44.6113C26.0883 44.4169 26.4529 44.2346 26.8174 44.0402C26.9025 44.0037 26.9754 43.9673 26.9876 43.87ZM34.5219 14.5103C34.3761 14.0728 34.2181 13.6353 34.0723 13.1978C34.048 13.1249 33.9751 13.0885 33.9022 13.1128C33.8171 13.1492 33.805 13.2221 33.8414 13.3072C33.9143 13.5381 33.9994 13.7568 34.0723 13.9877C34.1331 14.17 34.1938 14.3644 34.2546 14.5467C34.2789 14.6318 34.3397 14.6804 34.4369 14.6561C34.4976 14.6439 34.5098 14.5832 34.5219 14.5103ZM4.89482 38.037C4.89482 38.0248 4.89482 38.0248 4.89482 38.0127C4.67608 37.5873 4.44518 37.162 4.22644 36.7488C4.20214 36.7002 4.12923 36.6759 4.06847 36.7124C4.0077 36.7488 3.9834 36.7975 4.0077 36.8582C4.17784 37.2957 4.42088 37.6967 4.66392 38.1099C4.70038 38.1707 4.76114 38.1707 4.8219 38.1585C4.87051 38.1342 4.89482 38.0856 4.89482 38.037ZM28.0813 5.627C28.0813 5.55408 28.0326 5.50547 27.984 5.46902C27.6316 5.21382 27.2549 4.98293 26.866 4.77634C26.7931 4.73988 26.7081 4.71558 26.6716 4.8128C26.6351 4.89786 26.6838 4.97078 26.7445 5.00723C27.1212 5.23813 27.4858 5.48117 27.8625 5.69991C27.9597 5.76067 28.057 5.74852 28.0813 5.627ZM35.1174 30.2717C35.1174 30.2109 35.1174 30.1866 35.1174 30.1623C35.1052 30.0408 35.166 29.8585 34.9716 29.8707C34.8136 29.8828 34.85 30.053 34.85 30.1623C34.8379 30.5269 34.85 30.8793 34.8014 31.2439C34.7893 31.329 34.765 31.4626 34.8865 31.4748C35.0323 31.4991 35.0445 31.3654 35.0445 31.2682C35.0688 30.9158 35.0931 30.5755 35.1174 30.2717ZM24.2898 3.57327C24.1804 3.56112 24.1196 3.58542 24.1075 3.65834C24.0832 3.75555 24.1561 3.79201 24.229 3.81632C24.6179 3.97429 25.0067 4.14443 25.3956 4.3024C25.4807 4.33886 25.5901 4.37532 25.6387 4.2538C25.6873 4.14443 25.5901 4.09582 25.505 4.07151C25.1526 3.92569 24.788 3.77986 24.4356 3.63403C24.3748 3.59758 24.3141 3.58542 24.2898 3.57327ZM21.6892 2.85629C21.5312 2.85629 21.4218 2.83199 21.4097 2.95351C21.3854 3.06288 21.4826 3.09933 21.5677 3.11149C21.9808 3.19655 22.394 3.29377 22.8072 3.37884C22.9044 3.40314 22.9895 3.40314 23.0138 3.29377C23.0381 3.19655 22.9652 3.14794 22.8801 3.13579C22.4548 3.02642 22.0295 2.9292 21.6892 2.85629ZM11.9917 44.4412C11.9067 44.4412 11.858 44.4655 11.8337 44.5263C11.7973 44.6235 11.8823 44.6721 11.9431 44.6964C12.332 44.8908 12.733 45.0488 13.134 45.1825C13.2191 45.2068 13.3163 45.2311 13.3528 45.1217C13.3892 45.0124 13.292 44.9759 13.2069 44.9394C12.8302 44.7815 12.4657 44.6235 12.0889 44.4777C12.0646 44.4655 12.016 44.4412 11.9917 44.4412ZM15.9412 45.9481C15.9655 45.9481 16.0506 45.9481 16.0627 45.8509C16.087 45.7536 16.0141 45.705 15.9412 45.6929C15.5037 45.5957 15.0662 45.4984 14.6409 45.4012C14.568 45.3891 14.4951 45.4012 14.4708 45.4863C14.4465 45.5835 14.5072 45.6321 14.5801 45.6564C15.0176 45.7536 15.4551 45.863 15.9412 45.9481ZM20.3403 46.1061C20.7292 46.0574 21.1423 45.9967 21.5677 45.9359C21.6527 45.9238 21.75 45.8995 21.7256 45.7779C21.7135 45.6686 21.6163 45.6564 21.5312 45.6686C21.118 45.7293 20.7049 45.8144 20.2795 45.8387C20.1945 45.8387 20.0972 45.8873 20.1094 45.9967C20.1216 46.1182 20.2188 46.1182 20.3403 46.1061ZM35.0202 17.1352C34.9716 16.7827 34.9108 16.3817 34.85 15.9807C34.8379 15.8956 34.8014 15.7984 34.6921 15.8106C34.5705 15.8227 34.5827 15.9199 34.5949 16.005C34.6556 16.406 34.7164 16.807 34.7771 17.1959C34.7893 17.281 34.7771 17.4147 34.9108 17.4025C35.0566 17.4147 35.008 17.2688 35.0202 17.1352ZM2.67096 15.8592C2.65881 15.9928 2.64666 16.0901 2.76818 16.1144C2.87755 16.1265 2.914 16.0415 2.92616 15.9564C3.02337 15.5432 3.12059 15.1422 3.20566 14.729C3.22996 14.6439 3.21781 14.5467 3.10844 14.5224C3.01122 14.4981 2.97477 14.5953 2.96261 14.6683C2.8654 15.0693 2.76818 15.4825 2.67096 15.8592ZM17.2293 2.67401C16.8161 2.71046 16.3908 2.75907 15.9776 2.84414C15.8926 2.85629 15.7954 2.88059 15.8075 2.98996C15.8197 3.12364 15.9412 3.11149 16.0263 3.08718C16.4273 3.02642 16.8405 2.95351 17.2536 2.9292C17.3508 2.9292 17.4359 2.88059 17.4238 2.78338C17.4116 2.67401 17.3265 2.66185 17.2293 2.67401ZM34.85 32.8358C34.8622 32.7386 34.8379 32.6535 34.7285 32.6414C34.6192 32.6292 34.5949 32.7143 34.5705 32.8115C34.4855 33.2004 34.3883 33.6014 34.3032 33.9903C34.2789 34.0875 34.2424 34.1847 34.364 34.2333C34.4976 34.2698 34.5219 34.1604 34.5462 34.0754C34.6556 33.65 34.7528 33.249 34.85 32.8358ZM3.12059 34.0875C2.97477 34.0997 2.97477 34.1969 3.01122 34.3062C3.1449 34.6951 3.26642 35.0961 3.40009 35.485C3.43655 35.5822 3.49731 35.6673 3.60668 35.6187C3.71605 35.5822 3.67959 35.485 3.65529 35.3999C3.53377 35.0111 3.40009 34.6344 3.27857 34.2455C3.24211 34.1726 3.21781 34.0997 3.12059 34.0875ZM2.40361 18.2775C2.40361 18.4597 2.40361 18.6056 2.40361 18.7514C2.40361 18.8365 2.44007 18.9094 2.53729 18.9094C2.6345 18.9094 2.64666 18.8243 2.65881 18.7392C2.68311 18.3261 2.70742 17.9007 2.71957 17.4876C2.71957 17.3904 2.73172 17.281 2.59805 17.281C2.48868 17.281 2.47652 17.3782 2.46437 17.4754C2.44007 17.7428 2.41576 18.0223 2.40361 18.2775ZM2.90185 32.7629C2.84109 32.3254 2.79248 31.888 2.73172 31.4626C2.71957 31.3776 2.68311 31.3046 2.58589 31.3168C2.50083 31.329 2.47652 31.4019 2.48868 31.4748C2.52513 31.9244 2.57374 32.3619 2.67096 32.7994C2.68311 32.8844 2.73172 32.9452 2.82894 32.9209C2.914 32.9087 2.914 32.8358 2.90185 32.7629ZM2.64666 23.6974C2.64666 23.4786 2.64666 23.272 2.64666 23.0533C2.64666 22.9682 2.62235 22.8953 2.52513 22.8832C2.42792 22.8832 2.39146 22.9561 2.39146 23.0411C2.39146 23.4908 2.39146 23.9282 2.39146 24.3779C2.39146 24.4508 2.42792 24.5116 2.51298 24.5237C2.6102 24.5237 2.64666 24.4629 2.64666 24.3657C2.64666 24.147 2.64666 23.9161 2.64666 23.6974ZM2.64666 26.5288C2.64666 26.3101 2.64666 26.1035 2.64666 25.8848C2.64666 25.7997 2.6345 25.7146 2.53729 25.7025C2.42792 25.6903 2.39146 25.7875 2.39146 25.8848C2.39146 26.3101 2.39146 26.7476 2.39146 27.1729C2.39146 27.258 2.41576 27.343 2.51298 27.343C2.6102 27.343 2.6345 27.258 2.6345 27.1729C2.64666 26.9541 2.64666 26.7354 2.64666 26.5288ZM2.64666 20.9023C2.64666 20.6836 2.64666 20.477 2.64666 20.2583C2.64666 20.1732 2.64666 20.0881 2.53729 20.0881C2.44007 20.076 2.40361 20.1489 2.40361 20.234C2.40361 20.6714 2.40361 21.1089 2.40361 21.5464C2.40361 21.6315 2.44007 21.7044 2.53729 21.6922C2.6345 21.6801 2.64666 21.595 2.64666 21.5221C2.64666 21.3155 2.64666 21.1089 2.64666 20.9023ZM2.64666 29.3238C2.64666 29.1051 2.64666 28.8985 2.64666 28.6798C2.64666 28.5947 2.62235 28.5218 2.52513 28.5096C2.42792 28.5096 2.40361 28.5947 2.40361 28.6676C2.40361 29.0929 2.40361 29.5304 2.40361 29.9557C2.40361 30.0408 2.42792 30.1137 2.52513 30.1137C2.64666 30.1137 2.65881 30.0287 2.64666 29.9314C2.64666 29.737 2.64666 29.5304 2.64666 29.3238ZM32.8449 38.122C32.8571 38.0734 32.8449 38.037 32.8085 38.0248C32.7477 38.0127 32.7113 38.0491 32.6748 38.0734C32.3224 38.3165 32.2009 38.7175 31.9457 39.0335C31.8849 39.1064 31.8363 39.2157 31.9457 39.2765C32.055 39.3373 32.128 39.2522 32.1766 39.1671C32.3831 38.8512 32.5897 38.5352 32.7963 38.2193C32.8206 38.1828 32.8328 38.1463 32.8449 38.122Z" fill="#321627"/>
<path d="M7.11873 7.57129C7.21594 7.63205 7.13088 7.68066 7.09442 7.72927C7.05797 7.76572 7.00936 7.82649 6.9729 7.71712C7.02151 7.66851 7.07012 7.6199 7.11873 7.57129Z" fill="#321627"/>
<path d="M21.6527 18.8366C21.6163 19.3713 21.4948 19.8695 21.2031 20.3313C20.9236 20.7567 20.5347 21.0119 20.0486 21.1577C19.8664 21.2184 19.8056 21.1577 19.8056 20.9632C19.8056 20.465 19.7084 19.9911 19.4653 19.5536C18.9306 18.6057 17.8734 18.4113 17.0227 19.0918C16.804 19.2619 16.5974 19.4564 16.4516 19.6873C16.3544 19.8452 16.245 19.8695 16.0749 19.8088C15.686 19.6873 15.4308 19.4199 15.2364 19.0797C14.9447 18.5814 14.8232 18.0467 14.9812 17.4634C15.1391 16.8923 15.6252 16.6857 16.1478 16.9652C16.5245 17.1718 16.7432 17.4999 16.9012 17.8887C16.9741 18.0589 17.0713 18.1561 17.2293 18.229C17.7397 18.4477 18.2744 18.5207 18.8213 18.545C19.0765 18.5571 19.3074 18.4356 19.5018 18.2776C19.7934 18.0346 19.7691 17.6214 19.4289 17.2811C18.9792 16.8436 18.5175 16.4183 18.0678 15.9808C17.8369 15.7621 17.8369 15.7378 18.1164 15.592C18.2987 15.4947 18.481 15.4097 18.6876 15.3732C18.8091 15.3489 18.8577 15.3003 18.8577 15.1666C18.8091 14.5712 19.0036 14.0608 19.441 13.6598C19.5018 13.599 19.5018 13.5382 19.5018 13.4775C19.5383 13.2344 19.6598 13.0522 19.915 13.0035C20.1702 12.9549 20.3646 13.0643 20.4618 13.2952C20.5104 13.4167 20.5955 13.4653 20.717 13.4775C21.0694 13.5139 21.3854 13.6476 21.6284 13.915C21.7013 14 21.7864 13.9879 21.8836 13.9757C22.1753 13.9271 22.3819 14.0243 22.4912 14.2552C22.6128 14.4861 22.5763 14.7049 22.3576 14.8993C22.2482 14.9965 22.2239 15.0937 22.2604 15.2152C22.3211 15.4461 22.236 15.6284 22.0902 15.7986C21.6649 16.3089 21.1545 16.7343 20.632 17.1474C20.4861 17.2568 20.3525 17.3662 20.2431 17.5242C20 17.8766 20.0851 18.2533 20.474 18.4477C20.7413 18.5814 21.033 18.5936 21.3368 18.5571C21.6649 18.5328 21.6649 18.5328 21.6527 18.8366ZM20.2917 15.7013C20.2309 15.6892 20.158 15.677 20.0973 15.6649C20.0243 15.6527 19.9271 15.6406 19.9271 15.5434C19.9393 15.4461 19.9757 15.3611 20.0973 15.3489C20.1459 15.3489 20.1823 15.3489 20.2309 15.3368C20.4254 15.3003 20.4618 15.2031 20.3281 15.0573C20.2309 14.9479 20.0973 14.8142 19.9514 14.875C19.7813 14.9357 19.915 15.0937 19.9271 15.2152C19.9636 15.434 19.8664 15.5191 19.6719 15.4583C19.8056 15.7499 20.0365 15.7621 20.2917 15.7013Z" fill="#321627"/>
<path d="M20.0608 12.031C19.7205 12.5293 19.0278 12.3591 18.6511 11.6786C18.8577 11.7394 18.9671 11.9095 19.1372 11.9581C19.2466 11.9946 19.3924 12.1647 19.5018 11.9946C19.599 11.8366 19.6476 11.63 19.4167 11.5085C19.4046 11.4963 19.3924 11.4842 19.3803 11.472C19.2344 11.3384 19.0035 11.2168 19.0765 10.9738C19.1615 10.7186 19.4289 10.7429 19.6476 10.7307C19.842 10.7186 20.0486 10.7551 20.2188 10.8644C20.4375 10.9981 20.4618 11.1439 20.2795 11.3141C20.1945 11.3991 20.0851 11.4599 20 11.5328C19.9514 11.5693 19.8907 11.5936 19.8663 11.6422C19.7813 11.7637 19.6476 11.9217 19.7084 12.031C19.757 12.189 19.9028 12.0067 20.0608 12.031Z" fill="#321627"/>
<path d="M18.0436 9.74581C18.0436 9.96455 17.8613 10.1833 17.679 10.1711C17.4724 10.1468 17.3873 10.0132 17.3873 9.81872C17.3873 9.59998 17.5453 9.4177 17.7397 9.4177C17.9099 9.40555 18.0436 9.55137 18.0436 9.74581Z" fill="#321627"/>
<path d="M21.6405 10.2814C21.6405 10.5123 21.4825 10.7068 21.3002 10.6946C21.1179 10.6824 21.0329 10.5609 21.0207 10.3786C21.0086 10.1842 21.1908 9.97762 21.361 9.98977C21.5433 10.0141 21.6162 10.1356 21.6405 10.2814Z" fill="#321627"/>
<path d="M11.1168 38.5962C11.1168 38.2681 11.129 37.9399 11.1168 37.6118C11.1168 37.4417 11.1776 37.3809 11.3477 37.3931C11.5543 37.4053 11.7609 37.3931 11.9675 37.4053C12.405 37.4296 12.7331 37.7455 12.7574 38.1708C12.7695 38.4625 12.7695 38.7541 12.7574 39.0458C12.7331 39.4833 12.405 39.7992 11.9675 39.8114C11.7609 39.8235 11.5543 39.7992 11.3477 39.8235C11.1533 39.8357 11.1168 39.7506 11.1168 39.5805C11.129 39.2402 11.1168 38.9121 11.1168 38.5962Z" fill="#321627"/>
<path d="M11.1168 35.1806C11.1168 34.8647 11.1289 34.5487 11.1168 34.2206C11.1046 34.0383 11.1775 33.9775 11.3598 33.9775C11.5664 33.9897 11.773 33.9775 11.9796 33.9897C12.4292 34.014 12.733 34.33 12.7573 34.7674C12.7695 35.0469 12.7695 35.3386 12.7573 35.6181C12.733 36.0677 12.4049 36.3837 11.9553 36.408C11.7487 36.4201 11.5421 36.3958 11.3355 36.4201C11.1532 36.4323 11.1168 36.3472 11.1168 36.1892C11.1168 35.849 11.1168 35.5209 11.1168 35.1806Z" fill="#321627"/>
<path d="M24.7637 35.2049C24.7637 34.8768 24.7759 34.5487 24.7637 34.2206C24.7516 34.0383 24.8245 33.9775 25.0068 33.9775C25.2012 33.9897 25.3835 33.9775 25.5779 33.9775C26.0154 33.9897 26.3557 34.2935 26.38 34.731C26.4043 35.0469 26.4043 35.3629 26.38 35.6789C26.3435 36.092 26.0154 36.3837 25.6022 36.3958C25.3957 36.408 25.1891 36.3958 24.9825 36.3958C24.8245 36.408 24.7759 36.3351 24.7759 36.1892C24.7637 35.8733 24.7637 35.533 24.7637 35.2049Z" fill="#321627"/>
<path d="M29.5396 27.075C29.5396 27.3059 29.5396 27.5368 29.5396 27.7677C29.5396 27.9257 29.4788 27.9864 29.3208 27.9743C28.9077 27.9621 28.4945 27.9621 28.0813 27.9743C27.9355 27.9743 27.8869 27.9135 27.8869 27.7799C27.8869 27.3059 27.8747 26.832 27.8869 26.3581C27.899 25.8963 28.2514 25.5682 28.7011 25.556C29.1385 25.5439 29.4788 25.8598 29.5153 26.3216C29.5517 26.5768 29.5396 26.8198 29.5396 27.075Z" fill="#321627"/>
<path d="M21.5798 35.5215C21.5798 35.7524 21.5798 35.9833 21.5798 36.2142C21.5798 36.36 21.519 36.4329 21.3732 36.4329C20.9722 36.4329 20.559 36.4208 20.158 36.4329C20.0122 36.4329 19.9392 36.3843 19.9392 36.2264C19.9392 35.7646 19.9271 35.2906 19.9392 34.8288C19.9514 34.3428 20.3038 34.0146 20.7656 34.0146C21.2152 34.0146 21.5555 34.3671 21.5798 34.841C21.5798 35.0719 21.5798 35.2906 21.5798 35.5215Z" fill="#321627"/>
<path d="M16.2936 27.9747C16.087 27.9747 15.8804 27.9747 15.6738 27.9747C15.5037 27.9747 15.4672 27.9018 15.4915 27.7438C15.5644 27.4035 15.929 27.124 16.3179 27.124C16.6825 27.124 17.0349 27.4157 17.0956 27.7559C17.1199 27.8896 17.0956 27.9747 16.9376 27.9625C16.7189 27.9747 16.5002 27.9747 16.2936 27.9747Z" fill="#321627"/>
</g>
<defs>
<clipPath id="clip0_68_407">
<rect width="36.6997" height="47.5273" fill="white" transform="translate(0.410645 0.620117)"/>
</clipPath>
</defs>
</svg>
